<?xml version="1.0" encoding="UTF-8" standalone="no"?>
<!-- Created with Inkscape (http://www.inkscape.org/) -->

<svg
   xmlns:dc="http://purl.org/dc/elements/1.1/"
   xmlns:cc="http://creativecommons.org/ns#"
   xmlns:rdf="http://www.w3.org/1999/02/22-rdf-syntax-ns#"
   xmlns:svg="http://www.w3.org/2000/svg"
   xmlns="http://www.w3.org/2000/svg"
   xmlns:sodipodi="http://sodipodi.sourceforge.net/DTD/sodipodi-0.dtd"
   xmlns:inkscape="http://www.inkscape.org/namespaces/inkscape"
   width="128"
   height="128"
   viewBox="0 0 256 256"
   id="svg1"
   version="1.1"
   inkscape:version="0.92.4 (unknown)"
   sodipodi:docname="logo.svg">
  <defs
     id="defs4" />
  <sodipodi:namedview
     id="base"
     pagecolor="#f4ffd3"
     bordercolor="#666666"
     borderopacity="1.0"
     inkscape:pageopacity="1"
     inkscape:pageshadow="2"
     inkscape:zoom="0.35"
     inkscape:cx="375"
     inkscape:cy="520"
     inkscape:document-units="px"
     units="px"
     inkscape:current-layer="layer2"
     showgrid="false"
     gridtolerance="10"
     objecttolerance="10"
     guidetolerance="10"
     inkscape:snap-bbox="true"
     inkscape:bbox-paths="true"
     inkscape:bbox-nodes="true"
     inkscape:snap-bbox-midpoints="true"
     inkscape:object-paths="true"
     inkscape:snap-intersection-paths="true"
     inkscape:object-nodes="true"
     inkscape:snap-smooth-nodes="true"
     inkscape:snap-object-midpoints="true"
     inkscape:snap-center="true"
     inkscape:snap-text-baseline="true"
     inkscape:snap-page="true"
     borderlayer="true"
     inkscape:snap-global="false">
    <inkscape:grid
       type="xygrid"
       id="grid867" />
  </sodipodi:namedview>
  <metadata
     id="metadata7">
    <rdf:RDF>
      <cc:Work
         rdf:about="">
        <dc:format>image/svg+xml</dc:format>
        <dc:type
           rdf:resource="http://purl.org/dc/dcmitype/StillImage" />
        <dc:title />
        <dc:creator>
          <cc:Agent>
            <dc:title>Peter Simonyi</dc:title>
          </cc:Agent>
        </dc:creator>
      </cc:Work>
    </rdf:RDF>
  </metadata>
  <g
     inkscape:groupmode="layer"
     id="layer3"
     inkscape:label="Calendar"
     style="display:inline">
    <rect
       y="48"
       x="4"
       height="204"
       width="248"
       id="rect30"
       style="display:inline;opacity:1;fill:#ffffff;fill-opacity:1;stroke:none;stroke-width:1;stroke-linecap:round;stroke-linejoin:miter;stroke-miterlimit:4;stroke-dasharray:none;stroke-opacity:1;paint-order:markers stroke fill" />
    <path
       style="display:inline;fill:none;fill-rule:evenodd;stroke:#d6d6d6;stroke-width:2;stroke-linecap:butt;stroke-linejoin:miter;stroke-miterlimit:4;stroke-dasharray:none;stroke-opacity:1"
       d="m 39.07143,48 v 208"
       id="path865-3"
       inkscape:connector-curvature="0" />
    <path
       style="display:inline;fill:none;fill-rule:evenodd;stroke:#d6d6d6;stroke-width:2;stroke-linecap:butt;stroke-linejoin:miter;stroke-miterlimit:4;stroke-dasharray:none;stroke-opacity:1"
       d="m 74.64286,48 v 208"
       id="path865-6"
       inkscape:connector-curvature="0" />
    <path
       style="display:inline;fill:none;fill-rule:evenodd;stroke:#d6d6d6;stroke-width:2;stroke-linecap:butt;stroke-linejoin:miter;stroke-miterlimit:4;stroke-dasharray:none;stroke-opacity:1"
       d="m 110.21429,48 v 208"
       id="path865-7"
       inkscape:connector-curvature="0" />
    <path
       style="display:inline;fill:none;fill-rule:evenodd;stroke:#d6d6d6;stroke-width:2;stroke-linecap:butt;stroke-linejoin:miter;stroke-miterlimit:4;stroke-dasharray:none;stroke-opacity:1"
       d="m 145.78572,48 v 208"
       id="path865-5"
       inkscape:connector-curvature="0" />
    <path
       style="display:inline;fill:none;fill-rule:evenodd;stroke:#d6d6d6;stroke-width:2;stroke-linecap:butt;stroke-linejoin:miter;stroke-miterlimit:4;stroke-dasharray:none;stroke-opacity:1"
       d="m 181.35715,48 v 208"
       id="path865-35"
       inkscape:connector-curvature="0" />
    <path
       style="display:inline;fill:none;fill-rule:evenodd;stroke:#d6d6d6;stroke-width:2;stroke-linecap:butt;stroke-linejoin:miter;stroke-miterlimit:4;stroke-dasharray:none;stroke-opacity:1"
       d="m 216.92857,48 v 208"
       id="path865-62"
       inkscape:connector-curvature="0" />
    <rect
       rx="6"
       ry="6"
       y="0"
       x="0"
       height="48"
       width="256"
       id="rect42"
       style="display:inline;opacity:1;fill:#990000;fill-opacity:1;stroke:none" />
    <ellipse
       style="display:inline;opacity:1;fill:#ffffff;fill-opacity:1;stroke:none;stroke-width:1;stroke-linecap:round;stroke-linejoin:miter;stroke-miterlimit:4;stroke-dasharray:none;stroke-opacity:1;paint-order:markers stroke fill"
       id="circle48"
       cx="200.00436"
       cy="23.958031"
       rx="7.9993734"
       ry="8.0014467" />
    <ellipse
       cy="23.958031"
       cx="56.015644"
       id="circle46"
       style="display:inline;opacity:1;fill:#ffffff;fill-opacity:1;stroke:none;stroke-width:1;stroke-linecap:round;stroke-linejoin:miter;stroke-miterlimit:4;stroke-dasharray:none;stroke-opacity:1;paint-order:markers stroke fill"
       rx="7.9993734"
       ry="8.0014467" />
    <path
       inkscape:connector-curvature="0"
       id="path938"
       d="m 255.99999,81.666656 h -255.99999"
       style="display:inline;fill:none;fill-rule:evenodd;stroke:#d6d6d6;stroke-width:2;stroke-linecap:butt;stroke-linejoin:miter;stroke-miterlimit:4;stroke-dasharray:none;stroke-opacity:1" />
    <path
       style="display:inline;fill:none;fill-rule:evenodd;stroke:#d6d6d6;stroke-width:2;stroke-linecap:butt;stroke-linejoin:miter;stroke-miterlimit:4;stroke-dasharray:none;stroke-opacity:1"
       d="m 255.99999,115.83333 h -255.99999"
       id="path942"
       inkscape:connector-curvature="0" />
    <path
       inkscape:connector-curvature="0"
       id="path944"
       d="m 255.99999,150 h -255.99999"
       style="display:inline;fill:none;fill-rule:evenodd;stroke:#d6d6d6;stroke-width:2;stroke-linecap:butt;stroke-linejoin:miter;stroke-miterlimit:4;stroke-dasharray:none;stroke-opacity:1" />
    <path
       style="display:inline;fill:none;fill-rule:evenodd;stroke:#d6d6d6;stroke-width:2;stroke-linecap:butt;stroke-linejoin:miter;stroke-miterlimit:4;stroke-dasharray:none;stroke-opacity:1"
       d="m 255.99999,184.16666 h -255.99999"
       id="path946"
       inkscape:connector-curvature="0" />
    <path
       inkscape:connector-curvature="0"
       id="path948"
       d="m 255.99999,218.33333 h -255.99999"
       style="display:inline;fill:none;fill-rule:evenodd;stroke:#d6d6d6;stroke-width:2;stroke-linecap:butt;stroke-linejoin:miter;stroke-miterlimit:4;stroke-dasharray:none;stroke-opacity:1" />
    <rect
       ry="12"
       rx="12"
       y="7.9999995"
       x="2"
       height="246"
       width="252"
       id="rect44"
       style="display:inline;opacity:1;fill:none;fill-opacity:1;stroke:#990000;stroke-width:4;stroke-linecap:round;stroke-linejoin:miter;stroke-miterlimit:4;stroke-dasharray:none;stroke-opacity:1;paint-order:markers stroke fill" />
  </g>
  <g
     inkscape:groupmode="layer"
     id="layer2"
     inkscape:label="Dancers"
     style="display:inline">
    <path
       style="fill:#405d7e;fill-opacity:1;fill-rule:evenodd;stroke:none;stroke-width:1px;stroke-linecap:butt;stroke-linejoin:miter;stroke-opacity:1"
       d="m 139.95503,33.381903 c 9.06795,-4.523231 22.7273,-0.188481 23.81002,10.908419 1.22982,7.769016 -0.0415,16.551783 -5.89922,22.102206 -1.98521,7.47925 10.15618,6.817787 14.60934,10.765528 4.04214,0.659101 2.89685,5.392852 3.99428,8.367508 2.49133,6.210479 -6.65448,6.743662 -10.80299,6.911613 -6.82504,2.478218 -0.41903,14.068503 -1.84677,20.095143 0.78208,15.61383 3.2973,31.12886 2.37707,46.79081 0.28792,7.69018 -1.01891,15.62035 0.70739,23.13991 4.11998,10.81521 11.13944,20.37753 13.96991,31.73701 5.19763,5.86242 5.45608,20.68094 -5.25154,18.15358 -2.78383,-7.9916 -6.75955,-15.8494 -10.93477,-23.47668 -3.54885,-6.78936 -7.0977,-13.57872 -10.64655,-20.36808 1.53119,15.46218 3.59341,30.93267 2.65059,46.50972 -1.64242,6.8996 5.14214,21.85418 -7.12633,18.10275 -7.51977,-2.57151 -2.68907,-14.67816 -5.73541,-21.09585 -1.94449,-13.93319 -1.25845,-28.00719 -0.65451,-41.98472 -4.58043,-32.31097 -9.16086,-64.62194 -13.74129,-96.932913 3.50693,-19.90865 7.01385,-39.817304 10.52078,-59.725954 z"
       id="path826"
       inkscape:connector-curvature="0" />
    <path
       style="fill:#a07cbc;fill-opacity:1;fill-rule:evenodd;stroke:none;stroke-width:1px;stroke-linecap:butt;stroke-linejoin:miter;stroke-opacity:1"
       d="m 136.14591,59.406152 c 7.60025,-3.747632 6.7722,-13.722914 6.37444,-20.853978 -0.13978,-9.483907 -9.57066,-17.264894 -18.87618,-14.246253 -9.83355,1.73172 -11.72031,12.671759 -12.15356,20.958822 -2.56853,8.236867 8.6721,11.990502 6.59196,19.543725 -7.48933,4.463968 -19.536262,1.662189 -24.563821,10.557793 -5.200216,13.282538 -9.371471,26.969929 -14.700119,40.215149 -4.920595,4.236 -12.219936,6.55503 -15.020061,12.70766 0.07708,8.04378 9.852077,6.92212 14.559703,3.49184 7.077968,-2.03017 13.069369,-7.44738 14.992986,-14.67169 3.313648,-9.1103 6.627293,-18.220607 9.940942,-27.330917 0.0766,15.639257 1.21627,31.355517 0.6058,46.946817 -9.373294,24.46466 -32.953783,43.10955 -50.762552,58.48322 10.512773,-4.03797 22.839302,-9.93837 33.779896,-3.93832 7.79845,4.62986 18.140566,5.0649 25.683866,-0.31158 8.78296,-4.39964 17.25875,4.28946 25.8743,1.41822 4.88363,-2.0568 15.81994,-0.95927 16.53486,-6.84464 -4.28037,-12.1657 -7.41555,-24.76413 -9.6596,-37.48584 -2.85633,-11.39055 -0.6184,-23.04756 -0.0535,-34.55314 0.85095,-6.32651 0.5508,-13.20667 3.09458,-19.066435 5.68884,-4.305923 11.34057,-8.714087 17.02387,-13.057146 -4.65867,-6.001401 -11.91325,-9.114788 -18.50043,-12.494235 -4.94924,-1.941698 -14.36936,-1.046175 -10.76731,-9.469072 z"
       id="path19"
       inkscape:connector-curvature="0"
       sodipodi:nodetypes="cccccccccccccccccccccccc" />
    <path
       style="fill:#405d7e;fill-opacity:1;fill-rule:evenodd;stroke:none;stroke-width:1px;stroke-linecap:butt;stroke-linejoin:miter;stroke-opacity:1"
       d="m 87.158981,126.84619 16.768949,-7.8122 -0.28469,-13.10085 -8.487695,5.6858 z"
       id="path828"
       inkscape:connector-curvature="0"
       sodipodi:nodetypes="ccccc" />
    <path
       style="fill:#a07cbc;fill-opacity:1;fill-rule:evenodd;stroke:none;stroke-width:1px;stroke-linecap:butt;stroke-linejoin:miter;stroke-opacity:1"
       d="m 110.48313,191.95187 c 1.622,2.56588 4.34651,5.32417 3.0416,8.62311 -1.51042,6.61926 -3.02085,13.23852 -4.53127,19.85778 2.27041,-2.26663 7.18955,0.17174 5.28477,3.35009 -1.96671,2.92911 -5.85684,3.23041 -8.50311,5.2975 -3.35163,1.65796 -6.421776,3.90315 -9.984844,5.1168 -2.911197,-0.67436 -2.777868,-4.36655 -1.981123,-6.60749 l 6.425027,-27.57801 -1.198243,-5.81313 c 3.815723,-1.05168 7.631463,-1.19497 11.447193,-2.24665 z"
       id="path832"
       inkscape:connector-curvature="0"
       sodipodi:nodetypes="cccccccccc" />
    <path
       style="fill:#a07cbc;fill-opacity:1;fill-rule:evenodd;stroke:none;stroke-width:1px;stroke-linecap:butt;stroke-linejoin:miter;stroke-opacity:1"
       d="m 127.94517,189.6724 c -0.16023,19.73204 -0.40938,39.46336 -0.51404,59.19585 0.5231,1.707 0.036,4.59978 2.55919,3.95899 2.64872,0.10295 5.29745,0.20591 7.94618,0.30885 3.45728,-1.36772 3.15978,-5.52089 3.31986,-8.56794 0.91663,-10.82933 1.96656,-21.66764 1.82114,-32.54917 0.0968,-6.87373 0.1936,-13.74746 0.2904,-20.62118 -5.14091,-0.57513 -10.28182,-1.15027 -15.42273,-1.7254 z"
       id="path834"
       inkscape:connector-curvature="0" />
    <path
       style="fill:#a07cbc;fill-opacity:1;fill-rule:evenodd;stroke:none;stroke-width:1px;stroke-linecap:butt;stroke-linejoin:miter;stroke-opacity:1"
       d="m 146.26506,91.085448 24.12803,10.500652 c 3.84349,0.81308 5.40477,-0.1289 5.92642,-0.44227 0.52164,-0.31336 2.49905,-3.925848 2.62183,-5.635123 0.1227,-1.709279 -0.47421,-2.998944 -1.171,-3.894645 -0.69678,-0.895702 -2.52661,-2.651563 -2.52661,-2.651563 l -10.70252,-7.396478 z"
       id="path840"
       inkscape:connector-curvature="0"
       sodipodi:nodetypes="cczzzccc" />
    <path
       style="fill:#405d7e;fill-opacity:1;fill-rule:evenodd;stroke:none;stroke-width:1px;stroke-linecap:butt;stroke-linejoin:miter;stroke-opacity:1"
       d="m 164.54121,81.566021 c -10.73705,2.015424 -21.4741,4.030849 -32.21115,6.046273 -2.5698,1.122027 -3.30529,4.016176 -3.00165,6.536672 0.23775,2.717133 3.48095,4.556886 5.98654,3.672698 13.02244,-2.192569 26.04488,-4.385138 39.06732,-6.577707 2.26183,-1.564681 3.21685,-3.835365 3.20993,-6.521783 0.79391,-2.235696 -1.36107,-3.878457 -2.18704,-5.788443 -1.40331,-1.106417 -4.03265,0.947811 -5.93356,1.1242 -1.64347,0.502697 -3.28693,1.005393 -4.93039,1.50809 z"
       id="path838"
       inkscape:connector-curvature="0" />
    <path
       style="fill:#405d7e;fill-opacity:1;fill-rule:evenodd;stroke:none;stroke-width:1px;stroke-linecap:butt;stroke-linejoin:miter;stroke-opacity:1"
       d="m 165.47997,133.42698 c 1e-5,8.94208 11.3738,35.75132 10.94799,40.22235 -0.42581,4.47104 -11.30955,-5.8849 -14.47763,6.59568 -1.16683,4.59665 3.52964,-46.81803 3.52964,-46.81803 z"
       id="path966"
       inkscape:connector-curvature="0"
       sodipodi:nodetypes="cssc" />
  </g>
</svg>
